<svg xmlns="http://www.w3.org/2000/svg" width="1080" height="1000" viewBox="0 0 1080 1080" version="1.1"><path d="M 146 547.500 L 146 569 205.500 569 L 265 569 265 738.500 L 265 908 289.500 908 L 314 908 314 738.500 L 314 569 347.465 569 C 379.666 569, 380.969 568.926, 381.977 567.042 C 382.554 565.965, 382.791 562.703, 382.504 559.792 C 382.217 556.881, 381.739 552.925, 381.442 551 C 381.144 549.075, 380.731 543.225, 380.524 538 C 380.317 532.775, 380.040 527.938, 379.907 527.250 C 379.716 526.259, 355.505 526, 262.833 526 L 146 526 146 547.500 M 486 657.030 C 486 769.476, 486.219 789.763, 487.529 798.872 C 488.370 804.717, 490.195 813.550, 491.583 818.500 C 492.972 823.450, 495.645 831.276, 497.524 835.891 C 499.403 840.506, 502.721 847.281, 504.898 850.945 C 507.075 854.610, 510.691 860.059, 512.932 863.054 C 515.173 866.049, 520.493 872.009, 524.754 876.297 C 529.014 880.586, 535.650 886.272, 539.500 888.934 C 543.350 891.596, 550.139 895.609, 554.585 897.851 C 559.031 900.093, 566.681 903.266, 571.585 904.903 C 576.488 906.539, 585 908.800, 590.500 909.927 C 596 911.053, 607.752 912.500, 616.616 913.141 C 628.815 914.024, 636.250 914.028, 647.210 913.158 C 655.174 912.526, 665.478 911.348, 670.108 910.540 C 674.738 909.733, 682.571 907.905, 687.513 906.479 C 692.456 905.053, 700.455 902.147, 705.289 900.020 C 710.124 897.894, 718.653 893.109, 724.244 889.387 C 729.835 885.664, 738.044 878.984, 742.487 874.542 C 746.929 870.100, 753.087 862.648, 756.172 857.982 C 759.257 853.317, 763.204 846.652, 764.944 843.171 C 766.684 839.691, 769.692 832.109, 771.628 826.323 C 773.565 820.537, 776.101 811.459, 777.265 806.151 C 779.353 796.633, 779.387 794.633, 779.725 661.087 L 780.068 525.674 743.871 526.337 C 723.962 526.702, 697.382 527, 684.805 527 C 666.099 527, 661.839 527.255, 661.399 528.404 C 661.102 529.175, 666.204 538.513, 672.736 549.154 L 684.612 568.500 653.056 568.765 C 627.039 568.984, 621.324 568.787, 620.500 567.641 C 619.950 566.877, 614.550 557.651, 608.500 547.139 C 601.036 534.171, 596.857 527.879, 595.500 527.567 C 594.400 527.314, 569.313 526.816, 539.750 526.461 L 486 525.816 486 657.030" stroke="none" fill="#8c04fb" fill-rule="evenodd"/><path d="M 379.882 334.750 C 379.816 440.762, 379.909 527.950, 380.088 528.500 C 380.267 529.050, 380.523 533.550, 380.657 538.500 C 380.791 543.450, 381.144 549.075, 381.442 551 C 381.739 552.925, 382.217 556.881, 382.504 559.792 C 382.791 562.703, 382.554 565.965, 381.977 567.042 C 380.949 568.963, 381.430 569, 407.465 569 L 434 569 434 480.989 L 434 392.978 476.140 393.239 L 518.281 393.500 539.708 430 C 551.493 450.075, 574.656 489.563, 591.183 517.750 L 621.231 569 653.108 569 L 684.986 569 679.551 560.250 C 676.563 555.438, 650.266 512.575, 621.115 465 L 568.113 378.500 571.306 377.067 C 573.063 376.279, 579.048 373.493, 584.607 370.877 C 590.166 368.260, 599.406 362.982, 605.141 359.148 C 611.347 354.998, 618.606 348.994, 623.077 344.315 C 627.207 339.992, 632.919 332.901, 635.770 328.559 C 638.621 324.216, 642.341 317.331, 644.037 313.257 C 645.732 309.184, 647.983 302.476, 649.038 298.351 C 650.093 294.226, 651.416 287.184, 651.978 282.702 C 652.540 278.220, 652.999 269.591, 652.997 263.526 C 652.996 257.462, 652.500 248.450, 651.896 243.500 C 651.292 238.550, 649.718 230.236, 648.399 225.023 C 647.080 219.811, 643.767 210.974, 641.037 205.386 C 638.307 199.797, 633.380 191.834, 630.087 187.690 C 626.794 183.546, 621.437 177.940, 618.183 175.232 C 614.929 172.524, 608.914 168.219, 604.816 165.665 C 600.719 163.111, 593.059 159.222, 587.795 157.022 C 582.531 154.823, 573.096 151.701, 566.828 150.085 C 560.560 148.468, 550.722 146.448, 544.966 145.595 C 539.210 144.741, 527.300 143.585, 518.500 143.025 C 509.700 142.465, 474.938 142.005, 441.250 142.004 L 380 142 379.882 334.750" stroke="none" fill="#fc0404" fill-rule="evenodd"/></svg>